<svg width="918" height="72" viewBox="0 0 918 72" fill="none" xmlns="http://www.w3.org/2000/svg">
<path d="M55.7912 24.5431C49.2825 24.4216 42.855 26.003 37.1456 29.1304C31.4362 32.2579 26.6431 36.8229 23.2412 42.3731H87.6312C82.6212 31.6131 70.9212 24.5431 55.7912 24.5431Z" fill="#F5CD70"/>
<path d="M119.172 71.8332H105.722C105.5 71.8366 105.285 71.7561 105.12 71.6077C104.955 71.4594 104.852 71.2542 104.832 71.0332C104.432 68.3239 103.515 65.7166 102.132 63.3532C99.1315 58.3532 94.5415 55.8532 88.4015 55.8532C82.4015 55.8532 77.9215 58.3732 75.0115 63.3432C73.6571 65.7183 72.7615 68.327 72.3715 71.0332C72.347 71.2524 72.2428 71.455 72.0788 71.6025C71.9147 71.75 71.7022 71.8321 71.4815 71.8332H49.8115C49.5903 71.8343 49.3766 71.753 49.212 71.6051C49.0475 71.4572 48.9439 71.2533 48.9215 71.0332C48.5131 68.3497 47.5931 65.7697 46.2115 63.4332C43.2115 58.5032 38.6415 56.0032 32.5515 56.0032C26.4615 56.0032 22.0615 58.5132 19.1015 63.4732C17.7346 65.7931 16.8217 68.3519 16.4115 71.0132C16.3869 71.2315 16.2823 71.4329 16.118 71.5788C15.9537 71.7246 15.7412 71.8046 15.5215 71.8032H5.58153C3.95899 71.8158 2.38247 71.2644 1.12153 70.2432C0.753451 69.8798 0.464069 69.4446 0.27139 68.9646C0.0787095 68.4847 -0.0131426 67.9702 0.00153784 67.4532C-0.0217538 66.6049 0.220024 65.7705 0.693211 65.0661C1.1664 64.3617 1.84745 63.8224 2.64154 63.5232C3.17005 63.3012 3.72441 63.1467 4.29154 63.0632C5.78468 51.4718 10.8208 40.6243 18.7115 32.0032C23.106 27.2076 28.4626 23.393 34.4316 20.8083C40.4005 18.2236 46.8475 16.927 53.3515 17.0032C68.4815 17.0032 78.2615 23.0032 83.7915 28.1132C87.2004 31.1679 90.0203 34.8216 92.1115 38.8932C105.652 42.8932 112.532 51.2632 115.912 57.6632C118.147 61.77 119.557 66.2747 120.062 70.9232C120.071 71.0455 120.055 71.1684 120.013 71.2838C119.972 71.3993 119.907 71.5047 119.822 71.5932C119.735 71.6751 119.633 71.7386 119.521 71.7798C119.409 71.8211 119.29 71.8392 119.172 71.8332ZM106.492 70.0832H118.172C117.552 66.0084 116.243 62.0689 114.302 58.4332C109.562 49.5232 101.802 43.4932 91.2315 40.5032C91.1028 40.4672 90.9837 40.4027 90.8833 40.3144C90.7829 40.2261 90.7037 40.1163 90.6515 39.9932C88.6431 35.9674 85.8835 32.3627 82.5215 29.3732C77.2315 24.5432 67.8715 18.7932 53.3515 18.7932C47.091 18.7271 40.8869 19.9816 35.1439 22.4749C29.4009 24.9681 24.248 28.6442 20.0215 33.2632C12.2327 41.7828 7.33303 52.5445 6.02153 64.0132C5.99724 64.2307 5.89448 64.432 5.7325 64.5792C5.57052 64.7265 5.36042 64.8097 5.14154 64.8132C4.80154 64.8132 1.81154 64.9532 1.81154 67.4932C1.79903 67.7721 1.84506 68.0506 1.94667 68.3106C2.04829 68.5707 2.20324 68.8066 2.40154 69.0032C3.32019 69.7034 4.44652 70.0765 5.60154 70.0632H14.7915C15.2935 67.4321 16.2404 64.9059 17.5915 62.5932C19.0947 59.9683 21.2865 57.8041 23.9301 56.3342C26.5737 54.8644 29.5687 54.1448 32.5915 54.2532C41.0415 54.2532 45.5315 58.7932 47.8115 62.6032C49.1751 64.9136 50.1228 67.4453 50.6115 70.0832H70.7515C71.2203 67.4328 72.1403 64.8825 73.4715 62.5432C74.946 59.8862 77.1288 57.6904 79.7771 56.2003C82.4254 54.7103 85.4352 53.9843 88.4715 54.1032C96.9815 54.1032 101.472 58.6932 103.772 62.5332C105.109 64.8732 106.029 67.4279 106.492 70.0832Z" fill="#5DA0FB"/>
<path d="M85.2413 40.973H20.8713C20.7108 40.9728 20.5531 40.9302 20.4144 40.8494C20.2756 40.7686 20.1607 40.6525 20.0813 40.513C20.0024 40.3743 19.9609 40.2175 19.9609 40.058C19.9609 39.8984 20.0024 39.7416 20.0813 39.603C23.4514 34.1158 28.1492 29.5658 33.7413 26.373C39.7438 23.0136 46.5233 21.2895 53.4013 21.373C60.441 21.2648 67.3881 22.9877 73.5613 26.373C79.0052 29.421 83.3665 34.0864 86.0413 39.723C86.1007 39.8607 86.1262 40.0106 86.1157 40.1603C86.1053 40.3099 86.0592 40.4548 85.9813 40.583C85.8976 40.7018 85.7868 40.7991 85.6582 40.8669C85.5296 40.9347 85.3867 40.9711 85.2413 40.973ZM22.5113 39.183H83.8013C78.4713 29.113 67.2313 23.183 53.4213 23.183C46.8541 23.1056 40.3816 24.7539 34.6513 27.963C29.8026 30.7254 25.6527 34.564 22.5213 39.183H22.5113Z" fill="#5DA0FB"/>
<path d="M872.722 28.2545C875.177 22.3787 872.403 15.6257 866.527 13.1714C860.651 10.7171 853.898 13.4908 851.444 19.3667C848.99 25.2425 851.763 31.9955 857.639 34.4498C863.515 36.9041 870.268 34.1304 872.722 28.2545Z" fill="#F5CD70"/>
<path d="M905.51 35.3246C911.878 35.3246 917.04 30.1625 917.04 23.7946C917.04 17.4268 911.878 12.2646 905.51 12.2646C899.143 12.2646 893.98 17.4268 893.98 23.7946C893.98 30.1625 899.143 35.3246 905.51 35.3246Z" fill="#F5CD70"/>
<path d="M860.051 35.2248C857.592 35.2248 855.188 34.4955 853.144 33.1292C851.099 31.763 849.506 29.8211 848.566 27.5492C847.625 25.2773 847.38 22.7776 847.86 20.3661C848.341 17.9546 849.525 15.7398 851.265 14.0019C853.004 12.2639 855.22 11.0809 857.632 10.6024C860.044 10.1239 862.543 10.3715 864.814 11.3138C867.085 12.2561 869.026 13.8509 870.391 15.8963C871.755 17.9417 872.483 20.3459 872.481 22.8047C872.475 26.0988 871.164 29.2564 868.833 31.5847C866.503 33.913 863.345 35.2221 860.051 35.2248ZM860.051 12.1647C857.945 12.1588 855.885 12.7778 854.131 13.9433C852.378 15.1088 851.009 16.7685 850.199 18.7122C849.389 20.6558 849.174 22.7961 849.581 24.8621C849.989 26.928 851 28.8267 852.486 30.3177C853.973 31.8087 855.869 32.8251 857.934 33.2381C859.999 33.6511 862.139 33.4421 864.085 32.6377C866.031 31.8332 867.695 30.4695 868.865 28.7191C870.036 26.9687 870.661 24.9104 870.661 22.8047C870.661 19.9871 869.544 17.2843 867.555 15.2882C865.567 13.2921 862.868 12.1653 860.051 12.1548V12.1647Z" fill="#5DA0FB"/>
<path d="M903.491 35.2248C901.032 35.2248 898.628 34.4955 896.584 33.1292C894.539 31.763 892.946 29.8211 892.006 27.5492C891.065 25.2773 890.82 22.7776 891.3 20.3661C891.781 17.9546 892.965 15.7398 894.705 14.0019C896.444 12.2639 898.66 11.0809 901.072 10.6024C903.484 10.1239 905.983 10.3715 908.254 11.3138C910.525 12.2561 912.466 13.8509 913.831 15.8963C915.195 17.9417 915.923 20.3459 915.921 22.8047C915.915 26.0988 914.604 29.2564 912.273 31.5847C909.943 33.913 906.785 35.2221 903.491 35.2248ZM903.491 12.1647C901.386 12.1647 899.329 12.7888 897.579 13.9579C895.83 15.1271 894.466 16.7888 893.66 18.733C892.855 20.6772 892.644 22.8165 893.055 24.8805C893.466 26.9445 894.479 28.8403 895.967 30.3284C897.455 31.8164 899.351 32.8298 901.415 33.2403C903.479 33.6509 905.618 33.4401 907.562 32.6348C909.507 31.8295 911.168 30.4658 912.337 28.716C913.507 26.9663 914.131 24.9091 914.131 22.8047C914.131 19.9819 913.01 17.2746 911.015 15.2776C909.02 13.2806 906.313 12.1574 903.491 12.1548V12.1647Z" fill="#5DA0FB"/>
<path d="M860.05 23.6946C859.9 23.6961 859.752 23.6582 859.62 23.5846C859.414 23.4704 859.26 23.2796 859.193 23.0533C859.125 22.8269 859.15 22.5831 859.26 22.3746L870.79 1.15456C870.818 1.09772 870.851 1.04406 870.89 0.994554C870.922 0.953033 870.959 0.916021 871 0.884554C871.157 0.751196 871.354 0.67381 871.56 0.664552H894.21C894.385 0.664217 894.556 0.715234 894.702 0.81125C894.847 0.907266 894.962 1.04405 895.03 1.20456L904.31 22.4546C904.37 22.5905 904.396 22.7394 904.383 22.8875C904.371 23.0357 904.322 23.1784 904.241 23.3028C904.159 23.4271 904.048 23.5289 903.917 23.5991C903.786 23.6693 903.639 23.7056 903.49 23.7046H880.84C880.667 23.7033 880.498 23.6527 880.353 23.5588C880.208 23.465 880.093 23.3317 880.02 23.1746L871.49 3.59456L860.84 23.2346C860.762 23.3748 860.647 23.4914 860.508 23.5723C860.369 23.6532 860.211 23.6954 860.05 23.6946ZM881.43 21.9046H902.12L893.66 2.44455H872.95L881.43 21.9046Z" fill="#5DA0FB"/>
</svg>
